<svg xmlns="http://www.w3.org/2000/svg" width="2252" height="492" viewBox="0 0 2252 492"><path d="m105 80q11 0 19 1 9 1 16 4 7 2 14 6 2 1 3 1 0 1 0 4l3 31-1 1q-1 0-2-1-6-21-19-32t-34-11-38 10q-16 9-25 27-9 17-9 41 0 16 6 31t16 26 23 17q13 7 28 7 22 0 35-11 13-10 19-31 1-1 2-1l1 1-2 28q0 3-1 4 0 1-2 2-13 7-25 9t-27 2q-27 0-48-10-21-11-33-30-11-19-11-44 0-18 6-33 7-15 20-26 12-11 29-17t37-6zm130 167q-15 0-27-8-11-7-17-20-6-12-6-26t5-24q5-9 13-16 8-6 18-9 9-3 18-3 16 0 27 8 11 7 17 19t6 26q0 16-7 28-8 12-20 18-12 7-27 7zm7-5q14 0 22-10t8-31q0-16-6-29-5-12-14-19t-21-7q-14 0-21 10-8 10-8 29 0 15 5 28t14 21 21 8zm93-68-1-3q9-12 15-18 7-6 11-9 5-2 9-2 5 0 10 3 6 3 6 8 0 3-3 5-2 2-6 2-3 0-6-2-2-2-4-3-3-2-7-2-2 0-5 1t-7 6q-4 4-12 14zm-25 69q-1 0-1-1 0-2 1-2 10 0 13-3 3-4 3-15v-50q0-9-2-13t-7-4q-3 0-6 1-4 1-8 3-1 1-2-1 0-1 0-2l30-14q1 0 2 0 2 0 4 5 3 6 3 16v59q0 8 2 12 2 3 7 5 6 1 16 1 1 0 1 2 0 1-1 1-6 0-14 0-9 0-18 0-7 0-13 0t-10 0zm225 0q-1 0-1-1 0-2 1-2 10 0 13-3 3-4 3-15v-40q0-30-22-30-9 0-18 6-10 6-16 16l-2-3q12-15 22-22 11-7 22-7 14 0 21 7 7 8 7 24v49q0 11 3 15 3 3 13 3 1 0 1 2 0 1-1 1-4 0-10 0t-13 0-13 0-10 0zm-66 0q-1 0-1-1 0-2 1-2 10 0 13-3 3-4 3-15v-40q0-30-22-30-9 0-18 6-10 6-17 16l-1-3q11-15 22-22t22-7q13 0 21 7 7 8 7 23v50q0 11 3 15 3 3 13 3 1 0 1 2 0 1-1 1-4 0-10 0t-13 0-13 0-10 0zm-66 0q-1 0-1-1 0-2 1-2 10 0 13-3 3-4 3-15v-50q0-9-2-13t-7-4q-3 0-6 1-4 1-8 3-1 1-2-1 0-1 1-2l29-14q1 0 2 0 2 0 5 5 2 6 2 16v59q0 11 3 15 3 3 13 3 1 0 1 2 0 1-1 1-4 0-10 0t-13 0q-6 0-13 0-6 0-10 0zm243 4q-15 0-27-8-11-7-17-20-6-12-6-26t5-24q5-9 13-16 8-6 18-9 9-3 19-3 15 0 26 8 11 7 17 19t6 26q0 16-7 28-8 12-20 18-12 7-27 7zm7-5q14 0 22-10t8-31q0-16-5-29-6-12-15-19t-21-7q-14 0-21 10-8 10-8 29 0 15 5 28t14 21 21 8zm93-68-1-3q9-12 16-18 6-6 10-9 5-2 9-2 5 0 10 3 6 3 6 8 0 3-3 5-2 2-6 2-3 0-6-2-2-2-4-3-3-2-7-2-2 0-5 1-2 1-7 6-4 4-12 14zm-25 69q-1 0-1-1 0-2 1-2 10 0 13-3 3-4 3-15v-50q0-9-2-13t-7-4q-3 0-6 1-4 1-8 3-1 1-2-1 0-1 1-2l29-14q1 0 2 0 2 0 5 5 2 6 2 16v59q0 8 2 12 2 3 7 5 6 1 16 1 1 0 1 2 0 1-1 1-6 0-14 0-9 0-18 0-6 0-13 0-6 0-10 0zm158 2q-1 0-3 0-3 0-6-5-3-6-3-16v-49q0-15-4-22-5-6-12-6t-11 3-6 7q-1 5-2 9-1 3-3 7-2 3-7 3-4 0-6-2-2-3-2-6 0-4 4-9 5-5 12-9 8-4 16-6t14-2q11 0 16 7 5 6 5 19v48q0 8 3 13 2 4 7 4t13-4q1 0 2 1 0 2-1 2zm-46 0q-10 0-15-5t-5-13q0-5 2-9 3-4 9-8 6-3 15-7l31-11v3l-27 11q-4 1-7 4-3 2-5 5-1 3-1 6 0 6 3 10 4 5 11 5 3 0 5-1 3-1 7-4l17-9v3l-19 12q-6 4-11 6t-10 2zm153-2q-1 0-1-1 0-2 1-2 10 0 13-3 3-4 3-15v-41q0-15-6-22t-18-7q-9 0-19 5-10 6-16 17l-2-3q12-16 23-23t23-7q14 0 22 8 7 8 7 23v50q0 11 3 15 3 3 13 3 1 0 1 2 0 1-1 1-4 0-10 0t-13 0q-6 0-13 0-6 0-10 0zm-69 0q-1 0-1-1 0-2 1-2 10 0 13-3 3-4 3-15v-50q0-9-2-13t-7-4q-3 0-6 1-4 1-8 3-1 1-2-1 0-1 1-2l30-14h1q2 0 5 5 2 6 2 16v59q0 11 3 15 3 3 13 3 1 0 1 2 0 1-1 1-4 0-10 0t-13 0q-6 0-12 0-7 0-11 0zm169 3q-6 0-12-2t-9-6q-4-5-4-13v-60q0-6 0-9-1-3-4-4t-9-1q-1 0-1-2 0-1 1-1 11 0 17-6 7-5 7-14 0-1 2-1t2 1v89q0 10 5 15 6 5 15 5 7 0 12-2 6-2 9-5 1 0 2 1t0 2q-10 7-17 10-8 3-16 3zm25-89q-10-3-19-3-10-1-20-1v-6q10 0 20 0 9-1 20-2l1 1q0 2 0 5 0 2 0 4-1 2-2 2zm178 89q-22 0-39-6-17-7-29-19-12-11-18-26-6-16-6-33 0-19 7-34t20-26q14-10 31-16t38-6q14 0 26 3 11 3 19 7 2 1 3 2 0 1 0 4l3 30q0 1-1 1t-2 0q-2-10-7-18-4-7-10-13-7-5-16-8-8-3-20-3-20 0-36 8-17 9-26 26t-9 40q0 15 4 30 5 15 15 27t25 19q14 8 35 8 12 0 19-4 7-3 10-10 4-6 4-18t-2-18-8-7q-6-2-19-2-2 0-2-2t1-2q17 1 30 1t28-1q1 0 1 2t-1 2q-6 0-9 1-3 2-3 9-1 6-1 20 0 8 0 12 1 4 1 6 1 2 1 4t-1 2q0 1-2 1-13 3-27 5-15 2-27 2zm158-1q-1 0-2 0-3 0-6-5-3-6-3-16v-49q0-15-5-22-4-6-12-6-6 0-10 3t-6 7q-2 5-3 9 0 3-2 7-2 3-7 3t-7-2q-2-3-2-6 0-4 5-9t12-9 15-6 15-2q10 0 16 7 5 6 5 19v48q0 8 2 13 3 4 8 4 4 0 13-4 1 0 1 1 1 2 0 2zm-46 0q-10 0-15-5t-5-13q0-5 3-9 2-4 8-8 6-3 16-7l30-11 1 3-27 11q-5 1-8 4-3 2-4 5-2 3-2 6 0 6 4 10 4 5 11 5 2 0 5-1t7-4l16-9 1 3-19 12q-7 4-12 6-4 2-10 2zm110-71-1-3q9-12 15-18t11-9q4-2 8-2 6 0 11 3t5 8q0 3-2 5t-6 2-6-2-5-3q-2-2-6-2-3 0-5 1-3 1-7 6-5 4-12 14zm-26 69v-1-2q10 0 13-3 3-4 3-15v-50q0-9-2-13t-6-4q-3 0-6 1-4 1-8 3-1 1-2-1-1-1 0-2l30-14q1 0 2 0 2 0 4 5 3 6 3 16v59q0 8 2 12 2 3 7 5 5 1 16 1 1 0 1 2 0 1-1 1-6 0-15 0-8 0-17 0-7 0-13 0t-11 0zm158 2q-1 0-2 0-3 0-6-5-3-6-3-16v-49q0-15-5-22-4-6-11-6t-11 3-6 7q-2 5-3 9 0 3-2 7-2 3-7 3t-7-2q-2-3-2-6 0-4 5-9t12-9 15-6 15-2q10 0 16 7 5 6 5 19v48q0 8 2 13 3 4 8 4t13-4q1 0 1 1 1 2 0 2zm-46 0q-10 0-15-5t-5-13q0-5 3-9t8-8q6-3 16-7l30-11 1 3-27 11q-5 1-8 4-3 2-4 5-2 3-2 6 0 6 4 10 4 5 11 5 2 0 5-1t7-4l16-9 1 3-19 12q-7 4-11 6-5 2-11 2zm216-2v-1-2q10 0 14-3 3-4 3-15v-40q0-30-22-30-10 0-19 6t-16 16l-1-3q11-15 22-22t22-7q13 0 21 7 7 8 7 24v49q0 11 3 15 3 3 13 3 1 0 1 2 0 1-1 1-4 0-10 0t-13 0-13 0-11 0zm-66 0v-1-2q10 0 13-3 3-4 3-15v-40q0-30-21-30-10 0-19 6t-16 16l-1-3q11-15 22-22 10-7 22-7 13 0 20 7 8 8 8 23v50q0 11 3 15 3 3 13 3 1 0 1 2 0 1-1 1-5 0-11 0-5 0-12 0t-13 0-11 0zm-65 0q-1 0-1-1 0-2 1-2 10 0 13-3 3-4 3-15v-50q0-9-2-13t-7-4q-3 0-6 1-4 1-8 3-1 1-2-1-1-1 0-2l30-14q1 0 2 0 2 0 4 5 3 6 3 16v59q0 11 3 15 3 3 13 3 1 0 1 2 0 1-1 1-4 0-10 0t-13 0-13 0-10 0zm243 4q-16 0-27-8-11-7-17-20-6-12-6-26t5-24q5-9 13-16 8-6 17-9 10-3 19-3 16 0 27 8 11 7 17 19t6 26q0 16-8 28-7 12-19 18-13 7-27 7zm7-5q13 0 21-10t8-31q0-16-5-29-5-12-14-19t-21-7q-14 0-22 10-7 10-7 29 0 15 5 28t14 21 21 8zm136 1v-1-2q10 0 13-3 3-4 3-15v-41q0-15-5-22-6-7-18-7-10 0-19 5-10 6-17 17l-1-3q12-16 23-23t22-7q14 0 22 8t8 23v50q0 11 3 15 3 3 13 3 1 0 1 2 0 1-1 1-5 0-11 0t-12 0q-7 0-13 0t-11 0zm-68 0q-1 0-1-1 0-2 1-2 9 0 13-3 3-4 3-15v-50q0-9-2-13t-7-4q-3 0-6 1-4 1-8 3-1 1-2-1-1-1 0-2l30-14q1 0 2 0 2 0 4 5 3 6 3 16v59q0 11 3 15 3 3 13 3 1 0 1 2 0 1-1 1-4 0-10 0-7 0-13 0-7 0-13 0t-10 0zm170 4q-11 0-20-7-9-6-15-17-5-11-5-25 0-15 5-26 6-10 14-17 9-7 19-10 11-4 20-4t17 3 14 8l-3 18q-6-10-14-17t-21-7q-16 0-25 11-10 12-10 33 0 14 5 25 4 11 12 17 7 5 17 5 11 0 20-6 9-7 17-16l2 2q-5 6-13 13-7 7-16 12t-20 5zm57-187v155q0 9 2 13t7 4q3 0 6 0 4-1 8-3 1-1 1 1 1 1 0 2l-28 13q-1 1-2 1-3 0-6-6-2-6-2-18v-132q0-9-2-13t-7-4q-2 0-5 1t-7 3q-1 0-1-2-1-1 0-1l32-16q1 0 2 0h1q1 1 1 2zm-2180 394q-5 0-11-1-7 0-12 0-6 0-10 0-5 0-9 0v-1-1q6 0 9 0 3-1 4-4 1-2 1-6v-71q0-5-1-7t-4-3-8-1q-1 0-1-1t1-1q3 0 8 0 4 1 10 1 5 0 10-1 6 0 10 0 17 0 29 6t19 17q7 10 7 24 0 11-4 20-5 10-12 16-7 7-17 10-9 4-19 4zm-2-3q12 0 22-5 9-5 15-15 5-10 5-24t-5-24q-5-11-14-18-10-6-22-6-10 0-13 2-4 2-4 9v69q0 6 3 9t13 3zm97 4q-10 0-16-4-7-5-11-12-3-8-3-16t2-14q3-6 8-10 5-3 11-5t11-2q10 0 16 4 7 5 11 12 3 7 3 16t-4 16q-5 7-12 11-8 4-16 4zm4-3q8 0 13-6 5-5 5-18 0-10-4-17-3-8-8-12-6-4-13-4-8 0-13 6-4 6-4 17 0 9 3 17t8 13q6 4 13 4zm40 1q-1 0-1-1t1-1q6 0 7-2 2-2 2-8v-80q0-5-1-8-1-2-3-2-3 0-8 2l-1-1q0-1 1-1l19-9h1 1v1 98q0 6 2 8t8 2v1 1q-3 0-6 0-4 0-8 0t-8 0-6 0zm69 2q-9 0-16-4-7-5-11-12-3-8-3-16t3-14 7-10q5-3 11-5t11-2q10 0 16 4 7 5 11 12 3 7 3 16t-4 16q-5 7-12 11t-16 4zm4-3q8 0 13-6 5-5 5-18 0-10-3-17-4-8-9-12-6-4-13-4-8 0-12 6-5 6-5 17 0 9 3 17t9 13q5 4 12 4zm56-41-1-1q6-7 10-11 3-4 6-5 3-2 5-2 3 0 6 2 4 2 4 5 0 2-2 3-1 1-3 1-3 0-4-1t-3-2q-1-1-4-1-1 0-3 1-1 0-4 3t-7 8zm-15 42q-1 0-1-1t1-1q6 0 7-2 2-2 2-8v-31q0-5-1-7-1-3-4-3-2 0-4 1t-5 2v-1q-1-1 0-1l18-8v-1q2 0 3 4 2 3 2 9v36q0 4 1 6 1 3 4 3 4 1 10 1v1 1q-4 0-9 0t-10 0q-4 0-8 0t-6 0zm114 2q-6 0-12-4-5-3-9-10-3-6-3-15t3-15q4-7 9-11t11-6q7-2 12-2 6 0 10 2 5 1 9 5l-2 10q-4-6-8-10-5-4-13-4-9 0-15 7-6 6-6 19 0 9 3 15 2 7 7 10 5 4 10 4 7 0 12-4 6-4 10-10l2 2q-3 3-8 7-4 4-10 7-5 3-12 3zm35-112v93q0 6 1 8 1 3 4 3 2 0 4-1 2 0 4-2 1 0 1 1 1 1 0 1l-17 8-1 1q-2 0-4-4-1-4-1-10v-80q0-5-1-8-1-2-4-2-2 0-3 1-2 0-4 1-1 0-1-1-1 0 0-1l19-9h1 1zm50 112q-9 0-16-4-7-5-11-12-3-8-3-16t3-14 8-10q4-3 10-5t12-2q9 0 16 4 6 5 10 12 3 7 3 16t-4 16q-5 7-12 11t-16 4zm4-3q8 0 13-6 5-5 5-18 0-10-3-17-3-8-9-12-5-4-13-4t-12 6q-5 6-5 17 0 9 3 17t9 13q5 4 12 4zm40 1v-1-1q6 0 8-2t2-8v-80q0-5-1-8-1-2-4-2t-7 2q-1 0-1-1-1-1 0-1l20-9h1l1 1v98q0 6 1 8 2 2 8 2 1 0 1 1t-1 1q-2 0-6 0t-8 0-8 0q-3 0-6 0zm69 2q-9 0-16-4-7-5-10-12-4-8-4-16t3-14 8-10q5-3 10-5 6-2 12-2 9 0 16 4 6 5 10 12t4 16-5 16q-4 7-12 11-7 4-16 4zm4-3q8 0 13-6 5-5 5-18 0-10-3-17-3-8-9-12-5-4-12-4-9 0-13 6-5 6-5 17 0 9 3 17t9 13q5 4 12 4zm56-41-1-1q6-7 10-11t6-5q3-2 5-2 4 0 7 2t3 5q0 2-2 3-1 1-3 1t-4-1q-1-1-3-2-1-1-4-1-1 0-2 1-2 0-5 3-2 3-7 8zm-15 42q-1 0-1-1t1-1q6 0 8-2t2-8v-31q0-5-2-7-1-3-4-3-1 0-3 1-3 1-5 2-1 0-1-1-1-1 0-1l18-8q0-1 1-1t3 4q1 3 1 9v36q0 4 1 6 1 3 5 3 3 1 9 1 1 0 1 1t-1 1q-4 0-9 0t-10 0q-4 0-8 0-3 0-6 0zm83 2q-10 0-16-4-7-5-11-12-3-8-3-16t3-14 7-10q5-3 11-5t11-2q10 0 16 4 7 5 11 12 3 7 3 16t-4 16q-5 7-12 11-8 4-16 4zm4-3q8 0 13-6 5-5 5-18 0-10-3-17-4-8-9-12-6-4-13-4-8 0-12 6-5 6-5 17 0 9 3 17t8 13q6 4 13 4zm49-49q0 4 2 7t5 5q4 2 7 3 4 2 8 5 3 2 5 5 3 3 3 8t-3 9q-2 5-7 7-5 3-12 3-4 0-7-1-4-1-8-4v-1q-1 0-1-1v-12h1 1q2 5 5 9 2 3 6 5 3 2 7 2 5 0 8-3 3-2 2-7 0-4-2-7t-5-5-7-3q-3-2-7-4-3-2-6-6-2-3-2-8 0-6 3-10 3-3 8-5t10-2q3 0 6 0 2 1 5 2 2 1 2 2 0 2 0 5-1 3-1 6h-1q0-3-3-6-2-3-6-4-4-2-8-2-3 0-6 2-2 2-2 6zm65 51q-8 0-12-4-5-5-5-14v-24q0-6-1-9-1-2-3-2t-6 1l-1-1q0-1 1-1l17-7v-1q1 0 1 1 1 0 1 1v36q0 10 3 14t10 4q6 0 12-3 5-4 10-10l1 2q-7 9-14 13t-14 4zm33-60v43q0 5 1 7 1 3 4 3 2 0 3-1 2-1 5-2 1 0 1 1 1 1 0 1l-18 9h-1q-1 0-2-4-2-3-2-9v-30q0-6-1-9-1-2-4-2-2 0-5 1l-1-1q0-1 1-1l17-7v-1l1 1q1 0 1 1zm30 9q0 4 2 7t5 5 7 3q4 2 7 5 4 2 6 5t2 8-2 9q-3 5-7 7-5 3-12 3-4 0-8-1-3-1-7-4l-1-1v-1-12h1q2 5 5 9 3 3 6 5 4 2 8 2 5 0 8-3 2-2 2-7 0-4-2-7t-5-5q-4-2-7-3-4-2-7-4-4-2-6-6-2-3-2-8 0-6 3-10 3-3 8-5 4-2 10-2 3 0 5 0 3 1 6 2 1 1 1 2 0 2 0 5t0 6h-1-1q0-3-2-6-3-3-7-4-3-2-7-2t-6 2-2 6zm106 52q-9 0-16-4-6-4-9-11t-3-15q0-9 4-16 4-8 12-12 7-5 16-5t13 5q5 5 5 13 0 2 0 3-1 1-2 1h-9q1-9-2-14-4-4-10-4-8 0-13 6-4 6-4 18 0 8 3 15 2 7 8 11 5 4 13 4 5 0 8-2 4-2 7-4l1 1q1 1 0 1-5 5-11 7-5 2-11 2zm-21-41v-2l35-1v3zm65-11q0 4 2 7t5 5q4 2 7 3 4 2 8 5 3 2 6 5 2 3 2 8t-3 9q-2 5-7 7-5 3-12 3-4 0-7-1-4-1-8-4v-1q-1 0-1-1v-12h1 1q2 5 5 9 2 3 6 5 3 2 8 2 4 0 7-3 3-2 3-7-1-4-3-7t-5-5-7-3q-3-2-7-4-3-2-5-6-3-3-3-8 0-6 3-10 3-3 8-5t10-2q3 0 6 0 3 1 5 2t2 2q0 2 0 5t0 6h-1-1q0-3-3-6-2-3-6-4-4-2-7-2-4 0-6 2-3 2-3 6zm66 52q-4 0-7-1-4-1-6-4t-2-8v-36q0-3-1-5 0-2-2-3-1 0-5 0v-1-1q6 0 10-4 4-3 4-8 1 0 2 0h1v53q0 7 3 10t9 3q4 0 7-2 3-1 5-3 1 0 1 1 1 0 0 1-5 4-10 6-4 2-9 2zm15-54q-6-1-12-2-6 0-12 0v-3q6 0 12-1 6 0 12-1 1 0 1 1t0 3q0 1 0 2zm23 54q-3 0-5-2t-2-5 2-4q2-2 5-2t5 2q2 1 2 4t-2 5-5 2z"/></svg>
