<svg xmlns="http://www.w3.org/2000/svg" width="2107" height="511" viewBox="0 0 2107 511"><path d="m6 205q3-25 4-39 2-13 3-20t1-8q2-8 5-17 2-9 6-17 5-8 11-13t17-5q4 0 8 1 3 0 7 2 3 1 6 3t7 5q2 3 3 3 0 1 0 3 0 3-2 6t-7 3q-3 0-5-1-3-2-5-4t-4-4q-3-1-7-1t-6 2q-4 2-6 5t-3 7-1 8l-12 80v2q0 2 0 3 0 2 0 5 0 2 0 5 0 2 2 4 1 2 4 2 1 0 2-1 12-8 21-18 9-11 16-23 1-1 2-2 1-2 2-4 1-3 2-5t1-3q2-3 3-7 1-3 2-6t3-5 7-2q3 0 7 3 3 3 3 7v1q-6 18-16 33t-22 30q-7 9-17 15-10 5-22 5h-1q-11-4-15-12-4-9-4-20zm108 0 10-64q0-4 2-5 3-2 6-2 5 0 8 4 4 3 6 7 3 0 6-1 2-1 6-1 8 0 13 5 6 5 9 12 4 7 5 15 2 9 2 15 0 7-4 17-4 9-10 17-7 8-15 14-8 5-16 5-7 0-13-3-5-4-8-9-4-5-5-12-2-7-2-13zm21 1q1 3 1 6 1 3 2 6t3 4q1 1 5 0 3-3 7-7 4-3 7-8 4-4 6-9 2-4 2-10 1-8-1-15-3-7-7-10-4-4-9-1-5 2-11 13-2 6-4 15-1 8-1 16zm89 1-28-66v-1-1q0-2 2-4 1-1 3-3 1 0 2 0t2 0q5 0 7 2 2 1 6 4 0 3 2 7t4 11q2 6 6 15t10 23l1 2q1-2 1-4 1-2 3-7 1-5 4-14 3-10 9-26 2-3 2-7 1-5 2-8 1-4 3-7 3-2 7-2t8 3q4 4 4 8 0 3-1 5-2 3-3 5l-31 101h-1q-1 0-3 0t-4-1-3-1q-2-1-2-2l-12-31zm176-35q-1 5-2 7 0 3-2 5-1 2-4 4t-8 6q-4 4-11 10t-17 16q-4 4-8 8-5 4-9 7-5 3-10 5t-11 2q-10 0-15-7t-5-17q0-6 0-10 0-5 2-11-3-3-5-5t-2-5 2-4q1-1 3-1 2-1 4-1 1-1 2-2 0-2 2-6 1-4 3-8 1-4 3-8 1-4 2-6 1-4 3-8 3-5 5-8 3-4 7-6t9-2q3 0 8 3 4 2 8 6t7 8q3 5 3 8t-2 7q-2 3-5 5-2 3-5 5t-6 4l-1 1q-1 0-1 1l-1 1q-1 1-2 2t-2 2l-1 1q-1 1-3 2-2 2-5 4-2 2-4 3-2 2-3 2l-1 2q0 1-1 5 0 3-1 7 0 5-1 9 0 4 0 7v1h1q2 0 4-2 2-1 4-2l40-37 10-16q1-2 5-4 3-2 7-2t7 2q3 3 3 10zm-56-19q2-1 2-3-1-2-2-4-1-1-3-2-1 0-3 2-1 1-3 4-1 3-3 6t-4 6q-1 2 0 1zm74 79q-1-9-2-24t-3-31q-1-16-3-31-1-14-2-22 0-4 3-5t6-1 7 2 5 6q0 1 0 4 1 2 1 5t0 5q0 3 0 4t0 2 0 2v1q1 1 1 2 1 0 1-1l1-1q4-6 8-10t8-8 9-8q4-5 11-11 1-1 2-1 1-1 2-1 0-1 1-1t2 0q4 0 9 3 4 3 4 8 0 1-1 3-2 2-3 4-2 1-4 3-2 1-3 1-7 6-14 14-7 7-14 15-6 9-10 18t-4 19q0 8 2 16 1 9 1 17v9q-2 2-4 3-1 1-4 1-4 0-8-3-4-4-5-8zm182-60q0 5-1 7-1 3-2 5-2 2-5 4-2 2-7 6t-12 10-17 16q-4 4-8 8t-9 7-9 5q-6 2-11 2-11 0-16-7t-5-17q0-6 1-10 0-5 1-11-2-3-4-5t-2-5 1-4 3-1q2-1 4-1 2-1 2-2 1-2 2-6 2-4 3-8 2-4 3-8 2-4 2-6 2-4 4-8 2-5 5-8 3-4 7-6t9-2q3 0 7 3 4 2 8 6t7 8q3 5 3 8t-2 7q-2 3-4 5-3 3-6 5t-5 4q-1 0-1 1-1 0-2 1l-1 1q-1 1-1 2-2 1-2 2-1 1-2 1 0 1-2 2-2 2-5 4t-5 3l-2 2-2 2q0 1 0 5-1 3-1 7-1 5-1 9t0 7v1q2 0 4-2 2-1 4-2l40-37 10-16q2-2 5-4 4-2 7-2 4 0 7 2 3 3 3 10zm-55-19q1-1 1-3t-1-4q-1-1-3-2-2 0-4 2 0 1-2 4t-4 6-3 6q-1 2-1 1zm125 51q-1 0-4 5-3 6-8 12-6 7-13 12-7 6-15 6-11 0-18-7-8-7-8-19 0-6 2-14t6-17 10-17q6-9 13-15t14-9 15-1v-3q0-7 0-14-1-7-1-15-1-9-1-21t0-28q0-3 2-3 2-1 4-1 6 0 10 3 3 4 4 10-1 8-1 17 1 9 1 20 1 11 3 26 1 14 4 33 2 20 6 45 3 25 8 58v8q0 2-1 3-1 0-3 1-1 0-3 0h-2q-4 0-8-2-5-2-6-6l-9-66v-1zm-44 5q0 1-1 3 0 2 0 4 1 2 1 3 0 2 2 2 6 0 13-5t12-12q5-8 9-16 4-9 4-16 0-6-3-10-4-4-13-2-10 10-17 22t-7 27zm202-17q0-10-1-22 0-11-1-22-2 0-4 0t-4-1-4-2-2-3 1-5q2-3 4-6 2-2 4-4 2-3 3-4v-38q0-3 4-5 3-2 6-2 7 0 9 4 2 3 2 7t0 8 3 5q4-3 8-5 4-3 8-5t8-3 9-1q2 0 5 0 2 1 5 2 2 1 3 3 2 2 2 5 0 5-2 10-1 5-3 9-3 4-5 9-2 4-4 8l3 1q3 0 6 0 3 1 6 1h3q4 1 10 3 5 2 10 5 4 3 8 7 3 4 3 9 0 6-2 12-2 5-5 10-1 1-3 4t-4 6q-2 2-4 5-1 2-2 2l-47 41q-3 2-5 3-1 0-4 0-2 0-5 0-4 0-7-1t-6-2-3-3l-6-43zm25 29q1 0 4-1 3 0 3-1 1-1 4-3 2-2 5-4t5-4 4-3q4-4 10-9t11-10q5-6 9-12 3-6 3-12 0-3-2-5-3-3-6-4-4-1-8-1-4-1-7-1-5 0-9 2-5 2-9 4-4 3-7 7-4 3-8 6-1 1-2 2-1 0-3 1-1 1-2 2 0 1 0 3zm19-113-2 1q-1 1-2 2-2 1-3 1l-1 1-3 2q-3 2-6 5-3 2-6 5l-2 2v19h1l1-2q2-1 4-4 2-2 4-5 2-2 3-4 1-1 3-4 2-2 3-3 0-2 2-4 1-2 2-4t2-4l1-2v-2zm119 204q-1-5-1-13 0-7 0-16 0-8 0-16 0-9 1-16v-9q-1-2-3-3-2-2-6-8t-12-17-22-31q-5-5-7-9-1-4-1-6 1-2 3-3t4-1q5 0 9 2t7 6q3 3 6 8 3 4 5 7t4 6q2 4 4 7 3 3 4 6l2 2 3 4v-27q0-12-1-24 0-12 0-24 0-4 2-6 3-2 6-2 5 1 7 2t4 4q2 2 2 6t0 7q1 24 2 48 1 23 1 47-1 2-1 9t0 16q1 9 1 18 0 10 0 18 0 7 0 13 0 5 0 4 0 4-2 6-3 2-6 2-6 0-8-2-2-1-4-3-1-3-1-6-1-3-2-6zm189-67q0-2 0-5 1-4 1-7 1-4 1-8 1-3 1-5 1-11 3-22t2-22v-4l-4-2q-1-1-5-3-4-3-9-7-4-3-9-7-5-3-7-6-2-1-5-3-4-3-7-7-4-3-7-6t-5-5-4-4q-1-3-1-6 0-4 3-6t7-2q3 0 5 1 3 1 5 3 9 10 21 21 12 10 24 18l1-4 11-67q0-3 3-4 3 0 5 0 6 0 10 3 3 3 3 10v1 1q-1 1-1 2t-1 3v1q-1 3-2 12-1 8-3 20-1 12-3 26t-3 29q-2 14-4 28-2 13-3 23 0 3 0 6t-1 6-3 5-6 2q-5 0-8-2-4-3-5-7zm56-40 9-64q1-4 3-5 2-2 5-2 6 0 9 4 3 3 6 7 3 0 5-1 3-1 6-1 8 0 14 5 5 5 9 12 3 7 5 15 1 9 1 15 0 7-3 17-4 9-11 17-6 8-14 14-8 5-16 5t-13-3q-5-4-9-9-3-5-5-12-1-7-1-13zm21 1q0 3 1 6 0 3 1 6t3 4 6 0q3-3 6-7 4-3 8-8 3-4 5-9 3-4 3-10 0-8-2-15t-6-10q-4-4-10-1-5 2-10 13-3 6-4 15-1 8-1 16zm112 13q-2 4-3 9-2 4-4 7-3 4-6 6-3 3-8 3-9 0-15-5-5-4-9-11-4-6-5-14-2-8-2-15l2-60q0-2 1-4t3-3q2-2 4-3 3-1 5-1 6 0 10 4 4 3 4 9v3q-3 4-5 11-2 8-3 16-2 8-2 17t1 16 3 13q2 5 5 6 1 0 4-2 3-1 5-4 4-4 7-10 3-7 5-17 3-11 4-26 2-15 1-36 1-2 3-3 2 0 4 0t4 0q1 0 3 2 1 1 3 4 1 2 1 3l4 110q0 4-2 7-2 2-5 2-2 0-4 0-1 0-3-1t-3-2q-2-1-2-3l-4-25zm49 13q0-9-1-24t-3-31q-1-16-3-31-1-14-2-22 0-4 3-5t6-1 7 2 5 6q0 1 0 4 0 2 0 5t1 5q0 3 0 4t0 2 0 2v1q1 1 1 2l1-1 1-1q4-6 8-10t8-8 8-8q5-5 12-11 1-1 2-1l1-1q1-1 2-1t2 0q4 0 8 3 5 3 5 8 0 1-2 3-1 2-2 4-2 1-4 3-2 1-4 1-6 6-13 14-7 7-14 15-6 9-10 18t-4 19q0 8 1 16 2 9 2 17v9q-2 2-4 3t-4 1q-4 0-8-3-4-4-6-8zm268 33q-3-15-5-32-1-17-2-32-2 2-4 4-1 3-2 6t-3 6q-1 2-3 4-5 7-12 12-7 6-16 6-8 0-15-4-8-3-13-8-6-6-10-13-3-7-3-14 0-11 3-22t9-21q0-2 3-5 2-3 4-7 3-3 5-6t2-4l28-29q5-5 13-8 9-3 16-3 4-1 6 1 3 2 3 5t-3 5q-2 2-5 3-4 1-7 2-3 0-5 2-14 10-24 24-11 13-20 28-2 8-6 16-2 8-2 18 0 1 0 3 0 3 0 4 2 6 7 11t13 5q3 0 7-3 3-2 5-5 2-1 4-5t5-8 5-8 3-5q1-2 2-4 2-3 3-5t2-4l1-2v-1q-4 1-7 2-4 0-8 0-2 0-4 0-3-1-5-2-3-1-4-2-2-2-2-5 0-1 0-3 1-2 1-3 2-2 6-2 3-1 7-2 4 0 8 0 3-1 7-2 2-1 6-3 4-1 8-3t8-3q5-1 8-2 1 0 2 1 2 0 3 1 2 1 3 2l1 1q0 6-3 8t-8 5q1 10-1 20-1 10-1 20 0 12 0 25 1 12 3 24l1 3q0 2 1 4t1 4 0 3q0 4-2 7-3 3-6 3-4 0-7-2-4-3-5-6zm49-33q0-9-1-24-2-15-3-31t-3-31q-1-14-2-22 0-4 3-5t5-1q4 0 8 2t5 6q0 1 0 4 0 2 0 5 1 3 1 5 0 3 0 4t0 2 0 2v1q0 1 1 2 1 0 1-1l1-1q4-6 8-10 3-4 7-8t9-8q5-5 12-11 1-1 2-1l1-1q1-1 2-1h2q4 0 8 3 5 3 5 8 0 1-1 3-2 2-4 4-1 1-3 3-2 1-3 1-7 6-14 14-8 7-14 15-6 9-10 18t-4 19q0 8 1 16 1 9 1 17v9q-2 2-3 3t-4 1q-5 0-9-3-4-4-5-8zm137-59q-3 4-6 10-2 6-6 12-3 6-7 13-4 6-8 11-4 6-9 9-4 4-9 5-2 0-4-1-3 0-5-1-3-1-4-2-2-2-2-5 0-25 4-46 3-21 11-37 7-16 19-26 12-11 28-15 1 0 2 0l2-1q8 0 11 7t5 23q2 15 2 39 1 24 3 58 1 3 1 5t0 5-2 5-6 2q-7 0-10-4t-4-11l-1-4q0-3-1-8 0-5-1-10 0-5-1-8v-1q0-3 0-7 0-3-1-7 0-4-1-8zm-6-49q-7 5-13 13-7 9-9 17-2 4-3 10-2 7-3 13t-2 12q0 5 0 7v-1l1-1q15-15 22-32 6-17 7-38zm47 89q-2-7 0-18 2-10 6-20 4-11 10-20 7-9 13-15 7-5 14-6 8 0 14 7v1q0 1 1 4 0 3 0 9 0 5 0 15 1 1 1 2v1q0 3-3 6-2 2-5 2-4 0-7-1-3-2-4-7 1-1 1-3-1-3-1-6-1-3-1-6-1-3-1-4h-1v1q-4 7-8 16t-6 19q-2 9-1 18 1 10 5 17 4 0 7-3t5-5q4-5 8-10 4-6 8-11 2-3 2-5 1-2 2-3t3-2 5-1q4 0 8 2 3 2 3 6 0 6-5 15-5 8-12 16-8 8-16 14-8 5-14 5t-12-2-10-6-6-10q-3-5-3-12zm193-41q0 5-1 7-1 3-2 5-2 2-5 4-2 2-7 6t-12 10-17 16q-4 4-8 8t-9 7-9 5q-6 2-11 2-11 0-16-7t-5-17q0-6 1-10 0-5 1-11-2-3-4-5t-2-5 1-4 3-1q2-1 4-1 2-1 2-2 1-2 2-6 2-4 3-8 2-4 3-8 2-4 2-6 2-4 4-8 2-5 5-8 3-4 7-6t9-2q3 0 7 3 4 2 8 6t7 8q3 5 3 8t-2 7q-2 3-4 5-3 3-6 5t-5 4q-1 0-1 1-1 0-2 1l-1 1q-1 1-1 2-2 1-2 2-1 1-2 1 0 1-2 2-2 2-5 4t-5 3l-2 2-2 2q0 1 0 5-1 3-1 7-1 5-1 9t0 7v1q2 0 4-2 2-1 4-2l40-37 10-16q2-2 5-4 4-2 7-2 4 0 7 2 3 3 3 10zm-55-19q1-1 1-3t-1-4q-1-1-3-2-2 0-4 2 0 1-2 4t-4 6-3 6q-1 2-1 1zm-2025 295q2-4 5-5 3-2 6-3t6-2 7-3q1-1 4-3t6-4 5-4 2-4q-1-1-3-1-1-1-2-1-19-2-31-4-12-1-18-3t-9-5q-2-2-2-6 0-2 1-4 1-1 1-3 1-2 2-3 1-2 2-3 2-3 6-5 4-3 8-4 5-2 10-4 4-1 8-2 4 0 8-2 5-2 9-2 2 0 3 1 2 2 2 4t-1 4q-1 1-3 1-1 1-3 2-2 0-4 0-1 1-4 1-2 1-4 1-2 1-4 1l-1 1q-5 2-9 4-4 1-7 3-4 2-5 4-2 2-2 4v1q2 2 7 3t12 2q7 0 15 1t15 2q6 2 11 4 4 3 4 7 0 2 0 4-1 2-2 4-4 4-9 8-5 5-11 9-6 3-13 6-6 3-12 3-2 0-4-1-2-2-2-4zm65-22q-3-1-6-2-2-2-2-5 0-1 1-2t2-2q0-1 1-3 1-1 2-2 1-2 2-2 0-2-1-5 0-3 1-5 0-3 1-4 2-2 5-2 2 0 3 1t3 1q7-4 13-8 7-4 15-4 5 0 8 3 4 3 4 9 0 7-3 14-4 8-8 15-5 7-11 13-5 6-10 10 0 1-1 2-1 0-2 1 0 1-2 2l-1 34q0 2 0 3 0 2 0 3-1 1-2 2t-3 1q-1 0-2 0-2-1-3-2-1 0-2-1t-1-3zm14 10 1-1q1-1 2-2 1-2 2-3t2-2q5-3 8-8 4-5 6-10 3-5 3-9 1-4-1-6-2-1-7 1-4 1-12 9-2 1-3 3-2 2-2 4zm46-56q1-9 0-18t-1-18q0-3 1-4 2 0 4 0 3 0 5 1 2 2 2 5 2 16 2 32t2 33q4-9 9-14 5-6 9-8 5-2 9 1 3 2 5 10 3 7 3 19 1 13-1 32-1 0-3 0-1 0-3 0-1-1-2-1t-2-2q2-11 2-19 0-7-1-12 0-5-1-8-1-2-2-4-2-1-3-1t-2 0q-3 1-6 6t-5 11-3 13 0 12q-1 1-1 2 0 2 0 3l-1 1q-1 1-3 1-3 0-5-1t-3-3-1-4q0-3 0-5zm63 67q-1-15-2-25-1-11-2-18t-1-12q-1-4-1-6t-1-3v-1q0-2 2-3 1-1 3-1t5 0q2 1 3 4 1 7 2 14 0 8 1 15 0 8 1 15 1 8 2 15l1 1q0 1 0 2t0 2l1 1v1q0 2-2 4-2 1-3 1t-3 0q-1-1-2-1l-1-1q-1 0-2-1l-1-1q0-1 0-2zm-8-109q0-1 2-2 1-1 2-1 3 0 5 2 3 1 3 3 0 3-1 4 0 1-3 1-2 0-5-2t-3-5zm70 110q-2-3-4-8-1-6-2-12-2-5-3-11t-2-9-2-4q-2 0-3 4l-13 40q-1 2-2 3t-4 1q-1 0-2 0-2-1-3-1-1-1-2-2t-1-3q1-1 1-6t1-11q0-7 0-14t0-13 0-10q-1-5-1-6t0-3 1-3q0-1 1-2t3-1q3 0 6 2 2 3 2 6t0 7q-1 4-1 8 0 2 0 4t1 4q0-1 1-4t3-6q1-4 2-7t2-4q1-3 3-6 2-2 5-3 3 0 4 2 2 1 4 3 1 2 2 5 1 2 1 4l8 37 7 17v1 1q0 2-1 3-1 2-3 2-3 0-5-1-3-2-4-4zm25 20q0-1 1-4 1-4 2-8 2-4 4-9 1-5 3-10 2-4 3-8 1-3 2-5v-1-1q-3-2-6-5-3-2-5-5-3-3-6-7-2-3-4-5v-1q0-2 1-3 2-2 4-2 4 0 7 3 3 2 5 5t4 5q2 3 3 3h1q0-1 1-2 0-2 1-5 1-4 3-9t5-14q0-1 2-2 1 0 2 0 3 0 4 2 2 1 2 4v1l-10 36 24 21 1 1v1q0 2-2 3-2 2-4 2t-5-3q-4-2-7-5t-6-5q-3-3-4-3h-1q-2 2-3 6-2 3-3 7t-2 9q-1 4-2 8-2 3-4 6t-4 4q-2 0-5-2-2-1-2-3zm121-38 6-38q0-2 1-3 2-1 3-1 4 0 6 2t3 4q2 0 3 0 2-1 4-1 5 0 8 3t6 7q2 5 3 9 1 5 1 9 0 5-3 10-2 6-6 11t-9 8q-4 3-9 3t-8-2-5-5-3-7-1-8zm13 1q0 2 0 4 0 1 1 3t2 2q1 1 3 1 2-2 4-5 2-2 4-4 3-3 4-6t1-6q1-5-1-9-1-4-3-6-3-2-6-1-3 2-6 8-2 4-3 9 0 5 0 10zm44-10q-4 0-6-1-1-1-2-3-1-1-1-3t1-2l2-1q1-2 2-2h1v-3q0-9-1-17t-1-16q0-6 0-11 0-6 2-11 1-5 5-8t11-3q1 0 3 0 1 0 3 0 1 0 2 1t1 3q0 3-1 4-1 0-3 1-2 0-4 0-2 1-4 3v1q-1 1-1 2t0 3q-1 2-1 3 0 2 0 4l-1 1v1q0 1 0 3 0 1 0 2 0 2 0 3 0 3 0 6 0 2 0 5 0 2 1 5 0 3 1 6h1l20-12q2 0 4-1 1-1 3-1 3 0 5 1t2 3-1 2q0 1-1 2t-2 1l-2 1q-2 1-4 3-3 1-6 3t-5 3q-2 2-3 2-1 1-3 2-1 1-3 2-1 1-2 2l-1 1v1l4 13v1 1l7 21q1 3-1 5t-4 2q-3 0-5-2-3-1-3-4l-9-27zm99-18q0-1 1-3 1-1 2-2v-8q0-12-1-24 0-12-1-24 0-2 1-3t3-1q4-1 6 2 2 2 3 7t1 10q0 6 0 12 0 5 0 9t1 6l2-1q0 1 0 0 1 0 3-2 3-3 8-3 4-1 8-1 9 1 13 6 3 4 3 10-1 6-4 14-4 8-10 16t-13 15q-6 8-13 15-1 0-3 0-2-1-3-2-2 0-3-2-1-1-1-3v-39zm16 12v2q0 1 0 3t0 4q0 1 0 2v1q0 2 1 3 0 1 0 2t0 2q1-1 4-4 3-4 6-10 4-5 6-10 3-5 4-8 1-2 1-4 1-2 1-4 1-2 0-4t-2-3q-3 0-6 1-3 2-6 4t-5 4q-3 3-4 5 0 1 0 3t0 4 0 4 0 3zm42 28q0-7 1-13 0-6 0-12 0-17 0-34 0-16-2-33 0-3 2-4 1-1 4-1t6 2q2 2 2 6 0 21 1 42t1 42v12q-1 1-3 2t-3 1q-5-1-7-3-2-3-2-7zm57-32q-1 3-3 6t-4 7-4 8-5 7q-2 3-5 5t-5 3q-2 0-3 0-2-1-3-1-2-1-3-2t-1-2q1-16 3-28 2-13 6-22 5-10 12-16t17-9h1 1q5 0 7 4t3 13q1 10 1 24 0 15 2 35 0 2 0 3t0 3-1 3-4 1q-4 0-6-2-1-3-2-7v-2q-1-2-1-5t-1-6q0-3 0-5v-1q0-1 0-4-1-2-1-4t0-5zm-3-29q-4 3-8 8t-6 10q0 2-1 6t-2 7q-1 4-1 7 0 4 0 5v-1q10-9 13-20 4-10 5-22zm28 53q-1-4 0-11 1-6 4-12 2-6 6-12 4-5 8-9 4-3 8-3 4-1 8 4 1 1 1 3t0 5 0 9v1l1 1q-1 2-2 3-1 2-3 2-3 0-4-1-2-1-3-4v-2q0-1 0-3-1-2-1-4t0-3l-1 1q-2 5-5 10-2 5-3 11t-1 11q1 6 4 10 2 0 3-1 2-2 3-4 3-3 5-6 3-3 5-6 1-2 1-3 1-1 2-2 0-1 1-1 1-1 3-1 3 0 5 1 2 2 2 4 0 4-3 9t-8 10q-4 5-9 8t-9 3q-3 0-7-1-3-2-5-4-3-2-4-6-2-3-2-7zm55 24q0-1 0-3t0-4 0-3q0-2 0-3-1-4 0-13 0-8 0-19 0-10 0-21 0-10 0-19t0-15v-6q0-2 1-3 1-2 2-1 2 0 3 0 2 0 3 1t2 2 1 3v44h1l17-20q1-1 2-3t2-4q1-1 3-3 1-1 3-2 3 1 6 3 2 1 2 4v1l-1 1q0 1-2 3-1 1-4 5-4 4-9 11-6 6-14 17h1l29 3q2 1 4 3 1 2 1 3 0 3-2 4-2 2-4 2l-1-1q-1 0-5 0-3 0-9-1-7-1-19-2l1 35q0 3-1 5-2 1-5 1t-5-1q-2-2-3-4zm156-29q-2 5-5 8-2 4-4 7-3 3-4 4-2 1-3 1-1 1-3 1-1 0-3 0-4 0-7-1-2-2-4-5t-3-6q-1-4-1-7 0-7 3-13 2-7 6-13t9-10q6-5 12-7 2-1 5-2 4 0 7 0 4 0 7 1t3 4q0 2 0 3-1 2-1 4 0 11 0 22-1 11-1 23t1 25q1 12 1 25 0 1 0 2 0 2-1 3t-2 1q-1 1-2 1-5 0-7-5t-2-12q-1-7-1-16t1-17q0-8 0-14t0-8zm-23-5q-3 9-2 11 0 3 3 1t7-7 7-11q4-6 6-12 3-7 3-11-5 2-9 5-3 3-6 7t-5 8q-3 4-4 9zm75 14q-1 2-2 5-1 2-2 4-1 3-3 4t-5 1q-6 0-9-2-3-3-6-7-2-4-3-8-1-5-1-9l2-36q-1-1 0-3 1-1 2-2t2-1q2-1 3-1 4 0 6 2t2 6v1q-1 3-3 7-1 5-1 10-1 5-1 10t0 10q1 4 2 7t3 4q1 0 2-1 2-1 4-3t3-6q2-4 4-10 1-6 2-15t1-22q0-1 1-2 2 0 3 0t2 0 2 2q1 0 2 2v1l3 67q0 2-1 4-1 1-4 1h-1q-2 0-3-1-1 0-1-1-1 0-1-1l-3-15zm58-28q-1 3-3 6t-4 7-4 8-5 7q-2 3-5 5-2 2-5 3-2 0-3 0-2-1-3-1-2-1-3-2 0-1 0-2 0-16 2-28 2-13 6-22 5-10 12-16t17-9h1 1q5 0 7 4t3 13q1 10 1 24 0 15 2 35 0 2 0 3t0 3-1 3-3 1q-5 0-7-2-1-3-2-7v-2q-1-2-1-5t-1-6q0-3 0-5v-1q0-1 0-4 0-2-1-4 0-2 0-5zm-3-29q-4 3-8 8t-6 10q0 2-1 6t-2 7q-1 4-1 7 0 4 0 5v-1q10-9 13-20 4-10 5-22zm35 65q0-6-1-15t-2-19q0-9-1-18t-2-14q0-2 2-2 2-1 3-1 2 0 5 1 2 2 3 4v2q0 2 0 3 0 2 0 3 0 2 0 3v1 1l1 1v1l1-1q3-4 5-6 2-3 5-5 2-3 5-5 3-3 7-6l1-1 1-1h1 1q2 0 5 1 3 2 3 5 0 1-1 2t-2 2-2 2-2 1q-4 4-8 8-5 4-8 9-4 6-7 11-2 6-2 11t1 10 1 10v6q-2 1-3 2h-2q-3 0-5-2t-3-4zm61-38q-2 0-4 1-1 1-4 1h-1q-1 0-2 0l-1-1q-1 0-2-1l-1-1q0-1 0-2 0-3 1-4 2-1 5-2 2-1 4-2 3-1 4-2v-7q0-11-1-22-1-12-1-22 0-3 2-4 1-1 4-1t4 1q2 2 2 5 1 2 1 5t0 5 0 7q1 4 1 10t1 11q0 4 0 6 1 0 2 0 2-1 4-2 2 0 4-1 1-1 2-1 4-2 8-4t9-2q3 0 4 2 2 2 2 5 0 2-1 3-2 1-4 2l-27 10h-1q0 1-1 1v5q0 5 0 11 1 5 1 11 1 4 2 8 1 5 1 9 0 2-1 4t-3 2q-4 0-6-2-3-3-3-7-1-8-2-17t-1-18zm67 38v-1-1l22-40q0-1 1-3t1-4q1-2 1-3l1-2v-2q-5 0-11 3-6 2-12 4-5 1-10 0-5 0-8-7 0-1 2-3 2-1 3-1t2 1h2q4-1 9-2 4-1 8-3 5-1 9-2t8-1q2 0 4 0 2 1 4 1 2 1 4 2 1 1 1 4 0 2-1 4 0 2-2 4l-17 41v1l10-5h1l49-15h2q2 0 3 0 2 0 3 1 1 0 2 2 1 1 1 2 1 2-2 4-3 1-8 3-5 1-12 3-6 1-14 3-8 3-17 6t-18 8l-2 1q-2 0-4 1t-4 2q-2 0-3 0-3 0-5-1-3-2-3-5zm97 8q0-1 0-3 1-3 1-6 1-3 1-5l1-3q0-1 0-3 0-1 0-2 1-1 2-2 1 0 2 0 3 0 5 1 1 1 1 4v1 1q0 1 0 3-1 3-1 5t-1 4v3q-1 2-1 4-1 2-1 4t-1 3q-1 2-4 2-1 0-2-1t-1-2q-1-1-1-3 0-1 0-2zm61 23q0-4 1-6t2-2q2 0 3 1 2 1 4 3 2 1 4 2 2 2 4 2 4 0 7-3t4-7q2-4 2-8 1-5 1-8v-1q0-1 0-3t-1-7q0-4-1-11 0-8-1-19-1-12-3-28 0-2 1-4 1-1 4-1t5 1 3 3q0 2 0 4 1 3 1 6t1 8q0 5 1 13 1 7 1 17 1 10 2 24 0 5-1 10 0 5-3 10-2 5-5 8-4 4-9 6-1-1-2 0-1 0-2 0-3 0-6 0-4-1-7-2t-6-3-4-5zm19-134q0-2 2-3t4-1 5 2q3 1 3 5 0 2-2 2-2 1-4 1-1 0-2 0-2-1-3-2t-2-2-1-2zm62 95q-1 2-2 5-1 2-3 4-1 3-3 4t-5 1q-5 0-9-2-3-3-5-7t-3-8q-1-5-1-9l1-36q0-1 1-3 0-1 1-2 2-1 3-1 1-1 3-1 3 0 5 2 3 2 3 6v1q-2 3-3 7-1 5-2 10t-1 10 1 10q0 4 1 7 2 3 4 4l2-1q1-1 3-3t4-6 3-10q2-6 3-15 0-9 0-22 1-1 2-2 1 0 2 0t2 0 2 2q1 0 2 2l1 1 2 67q0 2-1 4-1 1-3 1-1 0-2 0t-2-1q-1 0-2-1-1 0-1-1l-3-15zm60-10-2 4q-2 3-5 7t-7 7-9 3q-7 0-11-4-5-4-5-11 0-3 1-8 2-5 4-11 3-5 6-10 4-5 8-9 4-3 8-5 5-2 9-1v-2q0-4 0-8t-1-9q0-6 0-13t0-16q0-2 1-2 1-1 3-1 3 0 5 2 2 3 3 6-1 5-1 10 1 6 1 12 0 7 1 16 1 8 3 20 1 11 4 26 2 16 4 35v5q0 1 0 2-1 0-2 0-1 1-2 1h-1q-3 0-5-1-3-2-3-4l-6-40v-1zm-26 4v1q0 1 0 3 0 1 0 2l1 1q4 0 8-3t7-8q4-4 6-9t2-9q1-4-2-7-2-2-7-1-7 6-11 14-4 7-4 16zm58 72q-1-1 0-3t3-3q3 2 7 2t7 0q4 0 8-1t7-2q4-3 5-8 1-4 1-12t-2-20q-2-11-4-29v-1q0-1 0-2l-1-1h-1q-2 4-4 8-3 5-6 8-4 4-8 7-4 2-9 2t-8-2q-3-3-3-8 0-4 1-9 2-6 4-12 3-7 7-13 3-6 7-11t8-9q4-3 8-3 1 0 4 1 2 0 5 1 2 1 4 3 2 1 2 3v12l9 71q0 6 0 11 0 6-2 10-2 5-5 9-4 3-11 5-1 1-4 1t-6 1q-4 0-8 0-4-1-8-1-3-1-5-2t-2-3zm23-109q-1 2-4 6-2 3-5 8-2 4-5 9-2 4-4 8-1 5-2 7 0 3 2 4 3-2 6-6 4-3 7-8t6-10q2-5 3-9t1-7q-1-2-5-2zm95 15q-1 2-1 4 0 1-1 2-1 2-3 3t-4 3q-3 3-7 7-5 3-11 9-2 3-5 5-2 2-5 4t-6 3q-3 2-6 2-6 0-9-5-3-4-3-10 0-4 0-6 0-3 1-7-2-1-3-2-1-2-1-3 0-2 1-3 1 0 2-1 1 0 2 0l1-1q1-1 1-4 1-2 2-5 1-2 2-5 1-2 1-3 1-2 2-5 2-3 3-5 2-2 4-3 3-2 6-2 2 0 4 2 3 2 5 4 3 2 4 5 2 2 2 4t-1 4-3 4q-1 1-3 3-2 1-3 2l-1 1h-1v1q-1 0-2 1l-1 1v1q-1 0-2 1t-3 2q-1 1-3 2-1 1-1 2l-1 1v2q-1 3-1 5 0 3 0 5-1 3-1 5h1q1 0 2-1t2-1l24-23 7-9q0-1 2-2 3-2 5-2t4 2q2 1 2 6zm-33-12q0-1 0-2t-1-2q0-1-1-1t-2 1-2 2q-1 2-2 4t-2 3q-1 2 0 1zm100 5q0-4 0-8-1-4-1-8 0-3 2-4t4-1h4q2 1 3 3 1 1 1 3t0 4 0 4v2q0 2 0 4t1 4q0 1 0 2l14-25q0-2 2-3t4-1q3 1 5 2t2 2q1 2 1 4t0 5q0 1 0 3 1 3 1 6 0 2 0 5 0 2 1 3 1-1 1-4 1-3 2-6 1-4 2-7t2-4v-1q1-1 1-2t1-2q0-1 0-2 2-1 3-2 1 0 2 0 4 0 6 2t3 5 1 6q1 4 1 6 1 0 1 1h-1l9 44v1 1q0 2-1 3-2 2-3 2-3 0-6-2t-3-4l-7-36-1-1q0 1-1 4-1 4-2 9-2 6-3 12-2 7-4 14 0 1-2 2-1 0-2 0-3 0-5 0-2-1-3-3-1-1-2-3 0-2 0-5 0-1-1-4 0-4 0-9-1-4-1-9-1-5-1-8v-1-1l-1-1-4 10-7 26-1 9q0 1-1 1-1 1-2 1l-1 1q-1 0-2 0-3 0-6-2-2-3-2-6 0-1 0-4t-1-7q0-4 0-9-1-4-1-9 0-4 0-7-1-3-1-4zm115 90q0-3 0-7 0-5 0-10t0-10 0-9v-5q0-2-2-3-1-1-3-4-3-4-8-10-4-7-13-19-3-3-4-5 0-3 0-4t1-2q2 0 3 0 3 0 5 1 3 1 5 3t3 5q2 2 3 5 1 1 2 3 2 2 3 4 2 2 3 4v1l2 2v-16q0-7 0-14t0-15q0-2 1-3 2-1 4-1t4 1q1 0 2 2t1 4 0 4q1 15 1 29 1 14 1 28 0 1 0 6 0 4 0 9t0 11 0 10q0 5 0 8v3q0 2-1 3-2 1-4 1-3 0-4 0-2-1-3-3 0-1-1-3 0-2-1-4zm99-62-17-40v-1q0-2 1-3t2-1h1 1q3 0 4 0 2 1 4 3 0 2 1 4 1 3 3 7 1 3 3 9 3 5 6 14l1 1q0-1 1-2 0-2 1-5t3-8q2-6 5-16 1-2 2-4 0-3 1-5 0-2 2-4 1-1 3-1 3 0 5 2 3 2 3 5 0 1-1 3-1 1-2 2l-18 61h-1q-1 0-2 0t-2-1q-1 0-2 0l-1-1zm43-2 5-38q1-2 2-3t3-1q4 0 6 2 1 2 3 4 2 0 3 0 2-1 4-1 4 0 8 3 3 3 5 7 2 5 3 9 1 5 1 9 0 5-2 10-2 6-6 11t-9 8q-4 3-9 3t-8-2-5-5-3-7-1-8zm12 1q1 2 1 4 0 1 1 3 0 2 2 2 1 1 3 1 2-2 4-5 2-2 4-4 2-3 4-6 1-3 1-6 1-5-1-9-1-4-4-6-2-2-5-1-3 2-6 8-2 4-3 9t-1 10zm56 15q-1-4-6-18-4-14-12-41v-1-1q0-2 3-2 2-1 3-1 3 1 5 2 2 2 3 5l8 29 1 1q2-3 2-7t1-8q0-4 2-7 1-3 6-4l2 1q1 0 2 1 1 0 1 1 1 1 1 2l8 26 2 2q1-3 2-9t2-12q1-7 1-12 1-6 1-8v-1l1-1q1-1 3-2t4 0h1q1 1 2 2 1 0 1 1 1 1 1 2l-9 61q0 1-1 2-1 0-2 1-1 0-2 0t-2 0q-3-1-6-4-2-3-4-7-3-4-4-8-2-4-3-7h-1q-1 1-2 5 0 3-1 7 0 4-1 8v3q0 2-3 3-2 2-4 1-2 0-4-2-1-1-2-3z"/></svg>
