<svg xmlns="http://www.w3.org/2000/svg" width="2596" height="492" viewBox="0 0 2596 492"><path d="m36 168v-19h38q12 0 20-4 8-5 13-13t5-18q0-16-11-25-11-10-28-10h-37v-20h40q17 0 30 6 13 7 21 18 7 12 7 29 0 15-7 28-8 13-21 21-14 7-33 7zm-14 75v-184h22v184zm100 0-49-78 18-14 57 92zm100 2q-19 0-33-8-15-9-23-24t-8-36 8-36q8-16 22-24t31-8 30 8q13 7 21 21 7 14 7 31 0 6 0 10-1 4-1 6h-102v-17h82q0-11-4-20-5-9-13-14-9-5-20-5-12 0-21 6t-14 17q-5 10-5 25 0 14 5 25 6 11 16 17t23 6q8 0 15-2 6-2 11-5t9-6l8 19q-8 6-19 10t-25 4zm202 0q-7-3-12-7t-7-9q-2-4-2-10l6 3h-12l7-15v-67l-6-13h2v-76h22v155q0 9 2 13t8 7zm-66 0q-12 0-23-5-11-4-19-13t-13-22-5-28q0-21 8-37 9-15 22-23 14-9 30-9 17 0 30 9 12 9 20 24 7 15 8 36-1 20-8 35-8 16-20 24-13 9-30 9zm4-19q12 0 21-7 9-6 14-17t5-25q0-15-5-26-6-11-15-17t-20-6q-12 0-22 6-9 6-15 17-5 11-5 26 0 14 5 25 6 11 15 17 10 7 22 7zm216 19q-8-3-12-7-5-4-7-9-2-4-2-10l6 3h-12l7-15v-67l-7-13h3v-76h22v155q0 9 2 13t8 7zm-66 0q-12 0-23-5-11-4-19-13-9-9-13-22-5-13-5-28 0-21 8-37 8-15 22-23 14-9 30-9t29 9 21 24q7 15 7 36 0 20-7 35-8 16-21 24-13 9-29 9zm4-19q11 0 20-7 10-6 15-17t5-25q0-15-5-26-6-11-15-17t-20-6q-13 0-22 6-10 6-15 17t-5 26q0 14 5 25t15 17q9 7 22 7zm100 17v-132h22v132zm11-154q-7 0-12-4-5-5-5-12t5-11q5-5 12-5t11 5q5 4 5 11t-5 12q-4 4-11 4zm96 156q-19 0-28-11t-9-28v-138h21v136q0 10 5 16 4 5 12 5 3 0 6-1 2-1 4-2l9 19q-4 2-9 3-4 1-11 1zm-59-115v-19h76v19zm221 115q-15 0-27-6t-21-15q-8-10-12-21l21-9q3 8 8 15 6 7 13 11 8 5 18 5 9 0 17-4 7-4 12-11t5-16-5-16q-5-6-12-10-6-5-13-7-7-3-11-4-12-5-23-11-11-7-18-18-6-10-6-25 0-14 6-24 7-11 18-16 11-6 27-6 14 0 24 5 11 4 18 12 7 7 11 16l-20 8q-2-5-7-9-4-5-11-8-6-4-15-4-12 0-20 7-9 7-9 20 0 8 3 13 4 6 9 10 6 4 12 7t11 5q6 2 15 5 9 4 17 10 9 6 15 15 6 10 6 24 0 16-8 27-8 12-21 19-12 6-27 6zm121 0q-12 0-22-5-10-4-16-13t-6-21q0-13 8-23 7-9 20-14 14-5 33-5h27v18h-26q-19 0-30 6-10 6-10 18 0 6 3 11t9 7q6 3 12 3 9 0 18-4 8-4 14-11t6-17v-14-8-14q0-4 0-9-1-5-3-10-3-5-9-8-5-4-16-4-6 0-13 2t-14 4q-6 3-11 7l-9-20q7-3 15-6t17-5 17-2q14 0 23 4t14 11 7 16 2 19v47q0 8 2 13t7 7l2 1-8 19-3-1q-8-3-12-9-6-6-6-12l5 2h-9l6-4q-5 10-17 17-11 7-27 7zm98-2v-132h22v16h4l-9 9q4-9 10-15 7-6 16-9t19-3q17 0 27 7 11 7 15 19 5 11 5 23v85h-21v-80q0-17-9-26-8-8-23-8-10 0-17 4-8 4-13 11-4 8-4 19v80zm181 2q-12 0-21-4-10-5-16-12-7-7-10-15l20-8q3 8 10 14 8 5 17 5 6 0 11-2 6-2 9-7 3-4 3-10 0-5-3-9t-8-7-10-4q-5-2-9-4-8-2-16-6-8-5-14-12t-6-19 6-20 15-12q10-4 21-4 16 0 26 8 11 8 16 18l-20 8q-3-5-8-10-6-5-14-5t-15 5q-6 4-6 12 0 7 4 11 5 4 11 7 6 2 12 4 5 2 12 4 6 3 13 7 6 5 10 11 5 7 5 17 0 11-7 20-6 9-16 14t-22 5zm-1277 208v-3l56-95h-53v-12h73v3l-56 95h57v12zm118 1q-8 0-13-3-6-2-10-8-3-5-3-12 0-8 4-14 4-5 12-8t20-3h17v10h-16q-12 0-18 4-7 4-7 11 0 4 2 6 2 3 6 5 3 1 7 1 5 0 11-2 5-2 9-6 3-5 3-11v-8-5-9q0-2 0-5-1-3-2-6-2-3-5-5-4-2-10-2-3 0-8 1-4 1-8 3-4 1-7 4l-5-12q4-2 9-4t10-3 10-1q8 0 14 3 5 2 8 6 4 4 5 10 1 5 1 11v28q0 5 1 8t4 4l2 1-5 11-2-1q-5-1-8-5-3-3-3-7l3 1h-5l3-2q-3 6-10 10t-16 4zm54-1v-3l40-64v-1h-38v-11h59v3l-40 64h40v12zm33-92q-5 0-7-3-3-3-3-7t3-7q2-3 7-3 4 0 6 3 3 3 3 7t-3 7q-2 3-6 3zm79 93q-11 0-19-5-9-5-14-15-5-9-5-21t5-21 14-14q8-6 19-6 12 0 20 6 9 5 14 14t5 21-5 21q-5 10-14 15-8 5-20 5zm0-12q8 0 14-3 5-4 9-11 3-6 3-15t-3-15q-4-7-9-10-6-4-14-4-7 0-13 4-5 3-9 10-3 6-3 15t3 15q4 7 9 11 6 3 13 3zm0-77-6-6 19-26 10 9zm55 48-5-9 17-11 10-4 13-8 5 8-18 11-10 4zm27 41q-6 0-9-2-4-2-6-7-1-4-1-11v-96h12v96q0 2 1 4 0 2 1 3t4 1q1 0 2 0t2 0v11q-1 1-3 1-1 0-3 0zm62 0q-8 0-16-3-7-3-12-9-6-5-9-13-3-7-3-16t4-17q3-7 8-12 6-6 13-9t15-3q7 0 13 2 7 3 12 6l-5 11q-3-2-6-4-3-1-7-2t-7-1q-7 0-13 4-6 3-10 10-3 6-3 15 0 8 3 15t10 10q6 4 13 4 6 0 12-2 5-2 8-5l5 11q-4 3-11 6-6 2-14 2zm-1-89-6-6 18-26 11 9zm110 121q-8 0-16-3-8-2-13-5l5-11q4 3 10 5 7 2 14 2 6 0 12-2t10-7q3-5 3-14v-10h-2l3-7v-43l-4-7h3v-10h13v77q0 9-3 16-3 6-9 11-5 4-12 6t-14 2zm-1-33q-7 0-13-2-7-3-12-9-5-5-7-12-3-8-3-17 0-13 5-22t13-14 18-5 18 5q7 5 12 14 4 9 4 21t-4 22q-5 9-13 14t-18 5zm2-12q8 0 13-3 5-4 9-11 3-6 3-15 0-8-3-14-4-7-9-10-5-4-13-4-7 0-12 4-6 4-9 10t-3 15q0 8 3 15 3 6 9 10 5 3 12 3zm92 13q-12 0-20-5-9-5-14-14t-5-22q0-12 5-21 5-10 13-15t19-5q10 0 18 5t12 13q5 8 5 19 0 3-1 6 0 2 0 3h-61v-10h49q0-6-2-12-3-5-8-8-5-4-12-4t-13 4q-5 4-8 10-3 7-3 15 0 9 3 15 3 7 9 11 6 3 14 3 5 0 9-1t7-3 5-4l5 12q-5 3-11 6-7 2-15 2zm17 23q-6 0-10-4-4-3-4-9t5-11 11-10l7 3q-3 3-6 6-3 2-6 5-2 3-2 6 0 2 2 4t5 2 5-1q3-1 4-2v8q-2 1-5 2t-6 1zm56-23q-7 0-13-2-6-3-10-7t-5-9l11-5q2 5 7 8 4 3 10 3 3 0 7-1 3-1 5-4 2-2 2-6 0-3-2-6-2-2-5-4-3-1-6-2-3-2-6-2-4-2-9-4-5-3-9-7-3-5-3-12t3-12q4-5 10-7 5-3 12-3 9 0 16 5 6 5 9 11l-12 5q-1-3-5-6-3-3-8-3t-9 3q-3 2-3 7 0 4 2 7 3 2 6 4 4 1 8 2 3 1 7 3t8 4q3 3 6 7 2 4 2 10 0 7-3 12-4 5-10 8t-13 3zm-1-89-7-6 19-26 10 9zm61 89q-6 0-9-2-4-2-6-7-1-4-1-11v-96h13v96q0 2 0 4t1 3 4 1q1 0 2 0t2 0v11q-1 1-3 1-1 0-3 0zm76 30q-6 0-10-4-3-3-3-8 0-4 2-8t5-8q4-4 7-7l4 5q-4 4-6 8-3 4-3 8 0 3 2 4 1 2 4 1 2 1 4 0 2 0 4-2v9q-2 1-5 2-3 0-5 0zm-33-30q-7 0-13-3-6-2-9-8-4-5-4-12 0-8 5-14 4-5 12-8t20-3h16v10h-15q-12 0-19 4-6 4-6 11 0 4 2 6 2 3 5 5 4 1 8 1 5 0 10-2 6-2 9-6 4-5 4-11v-8l-1-5v-9q0-2 0-5t-2-6q-1-3-4-5-4-2-10-2-4 0-8 1t-8 3q-4 1-7 4l-5-12q4-2 9-4 4-2 10-3 5-1 10-1 8 0 14 3 5 2 8 6t4 10q2 5 2 11v28q0 5 1 8t4 4l1 1-5 11-2-1q-4-1-7-5-3-3-3-7l3 1h-5l3-2q-3 6-10 10t-17 4zm91 32q-2 0-4 0-2-1-4-1v-12q2 0 3 0 2 1 4 1 5 0 8-4 3-3 3-9v-87h13v88q0 7-3 12-2 6-7 9t-13 3zm16-125q-4 0-6-3-3-3-3-7t3-7q2-3 6-3t7 3 3 7-3 7-7 3zm51 93q-8 0-13-3-6-2-10-8-3-5-3-12 0-8 4-14 4-5 12-8t20-3h17v10h-16q-12 0-18 4-7 4-7 11 0 4 2 6 2 3 6 5 3 1 7 1 5 0 11-2 5-2 9-6 3-5 3-11v-8-5-9q0-2 0-5-1-3-2-6-2-3-5-5-4-2-10-2-3 0-8 1-4 1-8 3-4 1-7 4l-5-12q4-2 9-4t10-3 10-1q8 0 14 3 5 2 8 6 4 4 5 10 1 5 1 11v28q0 5 1 8t4 4l2 1-5 11-2-1q-5-1-8-5-3-3-3-7l3 1h-5l3-2q-3 6-10 10t-16 4zm54-1v-3l40-64v-1h-38v-11h59v3l-40 64h40v12zm32-88-6-6 19-26 10 9zm46 88v-79h13v9h3l-6 6q3-5 6-9 4-4 10-6 5-2 12-2 10 0 16 5 6 4 9 11t3 14v51h-13v-48q0-10-5-15-5-6-14-6-6 0-11 3-4 2-7 7-3 4-3 11v48zm35-88-6-6 19-26 10 9zm93 57q-4 0-6-3-3-3-3-7t3-7q2-2 6-2t7 2q3 3 3 7t-3 7-7 3zm76-13v-12h22q7 0 12-3 5-2 7-7 3-5 3-12 0-9-6-15-6-5-17-5h-21v-12h22q11 0 19 4t12 11q5 7 5 17t-5 18q-4 7-12 12-8 4-18 4zm-10 44v-110h14v110zm85 0v-79h13v12h2l-5 5q3-5 6-9 4-5 9-7 5-3 12-3 3 0 5 1 2 0 3 0l-5 13q-1 0-2 0-2-1-4-1-3 0-7 2-4 1-7 4t-5 7-2 10v45zm1-117 18 18h1l18-18 6 7-23 21h-3l-23-21zm56 117v-79h12v79zm6-88-6-6 18-26 10 9zm48 89q-6 0-9-2-4-2-5-7-2-4-2-11v-96h13v96q0 2 0 4t1 3q2 1 5 1h1q1 0 2 0v11q-1 1-3 1-1 0-3 0zm22-1v-79h13v79zm7-92q-4 0-7-3t-3-7 3-7 7-3 7 3 3 7-3 7-7 3zm51 93q-8 0-13-2-6-3-10-7t-5-9l11-5q2 5 6 8 5 3 11 3 3 0 6-1 4-1 6-4 2-2 2-6 0-3-2-6-2-2-5-4-3-1-6-2-3-2-6-2-5-2-9-4-5-3-9-7-3-5-3-12t3-12q4-5 9-7 6-3 13-3 9 0 16 5 6 5 9 11l-12 5q-2-3-5-6t-8-3-9 3q-4 2-4 7 0 4 3 7 3 2 6 4 4 1 7 2t7 3q5 2 8 4 4 3 7 7 2 4 2 10 0 7-4 12-3 5-9 8t-13 3zm-20-118 18 18h1l18-18 6 7-23 21h-3l-23-21zm97 117v-3l40-64v-1h-38v-11h59v3l-41 64h41v12zm14-117 18 18 19-18 6 7-23 21h-3l-23-21zm80 118q-5 0-9-2t-5-7q-2-4-2-11v-96h13v96q0 2 0 4t2 3q1 1 4 1 1 0 2 0h1v11q-1 1-2 1-2 0-4 0zm51 0q-9 0-16-3-6-4-10-11t-4-17v-49h13v48q0 10 6 15 5 5 13 5 6 0 11-2 5-3 7-8 3-4 3-10v-48h13v57q0 5 1 7 1 3 5 5l-5 11q-5-2-9-6-3-4-3-8l6 3h-10l7-5q-3 6-10 11t-18 5zm86 0q-11 0-17-6-5-7-5-17v-83h13v82q0 6 2 9 3 3 8 3 2 0 3 0 2-1 3-1l5 11q-2 1-5 2-3 0-7 0zm-36-69v-11h46v11zm36-21 1-34h11l-2 34zm59 90q-11 0-20-5t-14-15q-5-9-5-21t5-21 14-14q9-6 20-6t20 6q9 5 14 14t5 21-6 21q-5 10-13 15-9 5-20 5zm0-12q7 0 13-3 6-4 9-11 3-6 3-15t-3-15q-3-7-9-10-6-4-13-4-8 0-13 4-6 3-9 10-4 6-4 15t4 15q3 7 9 11 5 3 13 3zm84 12q-9 0-15-3-7-4-11-11-3-7-3-17v-49h12v48q0 10 6 15t14 5q6 0 10-2 5-3 8-8 2-4 2-10v-48h13v57q0 5 1 7 2 3 5 5l-5 11q-5-2-8-6-4-4-4-8l6 3h-10l7-5q-3 6-10 11t-18 5zm93 0q-9 0-16-3t-13-9q-5-5-8-13-3-7-3-16t3-17q3-7 9-12 5-6 12-9t15-3q7 0 14 2 6 3 11 6l-5 11q-2-2-5-4-4-1-7-2-4-1-7-1-8 0-14 4-6 3-9 10-4 6-4 15 0 8 4 15 3 7 9 10 6 4 14 4 6 0 11-2t9-5l4 11q-4 3-10 6-7 2-14 2zm-20-118 18 18h1l18-18 6 7-23 21h-3l-23-21zm59 117v-115h13v68h6l-6 3 35-35h17l-40 41v-7l42 45h-17l-37-39 6 3h-6v36zm86 33q-4 0-8-1t-6-2l5-12q2 1 5 2 2 1 5 1 4 0 7-2 3-3 5-6 1-3 2-5l4-12v8l-34-83h14l19 48 6 16 6-16 17-48h14l-34 90q-1 3-3 7-2 3-5 7-3 3-8 5-4 3-11 3zm24-121-6-6 18-26 10 9zm88 88v-115h12v68h7l-6 3 34-35h17l-39 41v-7l42 45h-17l-37-39 6 3h-7v36zm107 1q-9 0-15-3-7-4-11-11t-4-17v-49h13v48q0 10 6 15 5 5 13 5 6 0 11-2 5-3 7-8 3-4 3-10v-48h13v57q0 5 1 7 1 3 5 5l-5 11q-5-2-9-6-3-4-3-8l6 3h-10l7-5q-3 6-10 11t-18 5zm3-91q-7 0-11-4-4-5-4-11 0-7 4-11 4-5 11-5t11 5q5 4 5 11 0 6-5 11-4 4-11 4zm0-7q4 0 6-2 3-3 3-6 0-4-3-6-2-2-6-2-3 0-6 2-2 2-2 6 0 3 2 6 3 2 6 2zm55 97v-79h13v9h3l-5 6q2-5 6-9t9-6 12-2q10 0 16 5 6 4 9 11t3 14v51h-13v-48q0-10-5-15-5-6-14-6-6 0-11 3-4 2-7 7-3 4-3 11v48zm17-117 18 18h1l18-18 6 7-23 21h-3l-23-21z"/></svg>
